Coordinates
version=1
nRows=27
nColumns=12
inDegrees=yes

Units are S.I. units (second, meters, Newtons, ...)
Angles are in degrees

endheader
time	SC_y	SC_z	SC_x	AC_y	AC_z	AC_x	GH_y	GH_z	GH_yy	EL_x	PS_y
       0.0               -20.2          25.51          67.19           50.9          8.473          14.98           36.9          76.26          175.3          61.86          141.1
   0.01579               -20.2          25.51          67.19           50.9           8.47          14.97           36.9          76.26          175.2          61.86          141.1
   0.03159              -20.21          25.51          67.18           50.9          8.466          14.97          36.91          76.26          175.2          61.85          141.1
   0.04738              -20.21          25.51          67.18           50.9          8.462          14.96          36.91          76.26          175.2          61.84          141.1
   0.06317              -20.22          25.51          67.17           50.9          8.458          14.96          36.91          76.26          175.1          61.84          141.1
   0.07897              -20.23          25.51          67.17           50.9          8.454          14.95          36.91          76.26          175.1          61.83          141.1
   0.09476              -20.23           25.5          67.16           50.9          8.449          14.95          36.92          76.26          175.1          61.82          141.1
    0.1106              -20.24           25.5          67.16           50.9          8.444          14.94          36.92          76.26          175.0          61.81          141.1
    0.1263              -20.25           25.5          67.15           50.9          8.439          14.93          36.93          76.25          175.0           61.8          141.1
    0.1421              -20.26           25.5          67.14           50.9          8.433          14.92          36.93          76.25          174.9          61.79          141.1
    0.1579              -20.27           25.5          67.13          50.89          8.427          14.92          36.94          76.25          174.9          61.78          141.1
    0.1737              -20.28           25.5          67.13          50.89           8.42          14.91          36.94          76.25          174.8          61.77          141.1
    0.1895              -20.29           25.5          67.12          50.89          8.413           14.9          36.95          76.25          174.7          61.76          141.1
    0.2053               -20.3           25.5          67.11          50.89          8.405          14.89          36.95          76.24          174.7          61.74          141.1
    0.2211              -20.32           25.5           67.1          50.89          8.396          14.88          36.96          76.24          174.6          61.73          141.1
    0.2369              -20.33           25.5          67.08          50.89          8.387          14.86          36.97          76.24          174.5          61.71          141.1
    0.2527              -20.35          25.49          67.07          50.88          8.377          14.85          36.97          76.24          174.4          61.69          141.1
    0.2685              -20.37          25.49          67.06          50.88          8.367          14.84          36.98          76.23          174.3          61.67          141.1
    0.2843              -20.38          25.49          67.04          50.88          8.355          14.82          36.99          76.23          174.2          61.65          141.1
    0.3001              -20.41          25.49          67.03          50.88          8.342          14.81           37.0          76.22          174.1          61.63          141.1
    0.3159              -20.43          25.49          67.01          50.87          8.328          14.79          37.01          76.22          174.0           61.6          141.1
    0.3317              -20.45          25.48          66.99          50.87          8.312          14.77          37.02          76.22          173.9          61.58          141.1
    0.3475              -20.48          25.48          66.97          50.87          8.295          14.74          37.04          76.21          173.7          61.55          141.1
    0.3632              -20.51          25.48          66.94          50.86          8.276          14.72          37.05           76.2          173.6          61.51          141.1
     0.379              -20.55          25.48          66.92          50.86          8.255          14.69          37.07           76.2          173.4          61.47          141.0
    0.3948              -20.58          25.47          66.89          50.86          8.231          14.66          37.09          76.19          173.2          61.43          141.0
    0.4106              -20.63          25.47          66.86          50.85          8.204          14.63          37.11          76.18          172.9          61.38          141.0
